#!OML:ASF H:\LiuWeirdWalks\Patient Classification 1\Patient 1\Session 1\male.ASF
:FULLY-SPECIFIED
:DEGREES
517
root 3.01388 16.7634 30.0683 3.39869 5.279 -2.65279
lowerback 18.8284 -0.403238 -8.39958
upperback -0.907792 -1.91679 4.4583
thorax -11.2245 -0.225446 10.4285
lowerneck -27.1701 2.50928 6.49215
upperneck 23.1739 2.45529 -5.5346
head 12.3143 0.90982 -2.74465
rclavicle 1.03865e-014 3.97569e-015
rhumerus -37.1268 0.819871 -73.9441
rradius 34.9217
rwrist -5.45197
rhand -21.0394 3.44336
rfingers 7.12502
rthumb 5.33633 -26.4695
lclavicle 1.03865e-014 3.97569e-015
lhumerus -31.1926 -12.9555 88.324
lradius 43.2628
lwrist 2.17174
lhand -14.5765 -7.8244
lfingers 7.12502
lthumb 11.5732 21.836
rfemur -24.6066 -21.2419 11.8006
rtibia 86.943
rfoot -18.1545 -18.2589
rtoes -9.44334
lfemur -25.2423 0.915252 -23.4171
ltibia 57.3605
lfoot -22.1882 0.930376
ltoes -19.1316
518
root 3.02093 16.7667 30.1617 3.55962 5.26638 -2.58175
lowerback 18.8052 -0.560213 -8.89895
upperback -0.850882 -2.23015 4.5225
thorax -11.0521 -0.356189 10.8797
lowerneck -27.4383 2.84397 6.89107
upperneck 23.0561 2.76706 -5.63798
head 12.3497 1.06608 -2.79193
rclavicle -2.96189e-014 1.59028e-014
rhumerus -37.0169 2.20789 -74.3482
rradius 35.3157
rwrist -5.58393
rhand -21.0714 3.314
rfingers 7.12502
rthumb 5.30542 -26.5996
lclavicle -2.96189e-014 1.59028e-014
lhumerus -30.863 -12.8015 87.8787
lradius 43.6627
lwrist 1.55533
lhand -14.4252 -7.85724
lfingers 7.12502
lthumb 11.7191 21.795
rfemur -25.0025 -21.5765 11.4631
rtibia 87.3402
rfoot -18.0856 -17.9635
rtoes -9.55294
lfemur -24.7754 1.11391 -23.4498
ltibia 56.8829
lfoot -22.599 0.697588
ltoes -19.0383
519
root 3.03074 16.7727 30.2567 3.68693 5.1981 -2.59373
lowerback 18.7754 -0.654674 -9.12239
upperback -0.839099 -2.40253 4.54109
thorax -10.9697 -0.43085 11.0769
lowerneck -27.6668 3.03078 7.09898
upperneck 23.0387 2.91448 -5.60378
head 12.4 1.15213 -2.7859
rclavicle -1.7344e-014 3.77691e-015
rhumerus -37.1911 3.42541 -74.6791
rradius 35.8657
rwrist -5.70877
rhand -21.033 3.21811
rfingers 7.12502
rthumb 5.3425 -26.6945
lclavicle -1.7344e-014 3.77691e-015
lhumerus -30.7056 -12.8599 87.5211
lradius 44.139
lwrist 0.897177
lhand -14.3224 -7.89301
lfingers 7.12502
lthumb 11.8182 21.7535
rfemur -25.4358 -21.9582 11.193
rtibia 87.8136
rfoot -18.0169 -17.645
rtoes -9.631
lfemur -24.1696 1.41656 -23.4186
ltibia 56.2383
lfoot -23.0889 0.583456
ltoes -18.8605
520
root 3.04328 16.783 30.3566 3.78029 5.05923 -2.6646
lowerback 18.7333 -0.69978 -9.16947
upperback -0.868906 -2.47143 4.53678
thorax -10.9607 -0.460508 11.1164
lowerneck -27.8587 3.12541 7.1885
upperneck 23.1206 2.96621 -5.49779
head 12.4721 1.1962 -2.75175
rclavicle 1.61513e-014 -1.03368e-014
rhumerus -37.6119 4.57176 -74.9672
rradius 36.5741
rwrist -5.7916
rhand -20.9461 3.13627
rfingers 7.12502
rthumb 5.42641 -26.7743
lclavicle 1.61513e-014 -1.03368e-014
lhumerus -30.7293 -12.9911 87.2291
lradius 44.6724
lwrist 0.13479
lhand -14.2467 -7.95698
lfingers 7.12502
lthumb 11.8913 21.6853
rfemur -25.876 -22.3761 10.9553
rtibia 88.3519
rfoot -17.9695 -17.2942
rtoes -9.67512
lfemur -23.4048 1.82643 -23.3498
ltibia 55.4168
lfoot -23.6261 0.593722
ltoes -18.6121
521
root 3.05819 16.7997 30.4618 3.85223 4.8495 -2.78566
lowerback 18.6418 -0.675504 -9.00157
upperback -0.936497 -2.4012 4.48484
thorax -11.0119 -0.432698 10.934
lowerneck -28.0038 3.08743 7.12619
upperneck 23.2714 2.87319 -5.29795
head 12.5474 1.17686 -2.68412
rclavicle 2.00773e-014 -1.39149e-014
rhumerus -38.2971 5.53806 -75.2075
rradius 37.4367
rwrist -5.82962
rhand -20.8005 3.05993
rfingers 7.12502
rthumb 5.56695 -26.8469
lclavicle 2.00773e-014 -1.39149e-014
lhumerus -30.909 -13.3425 87.0305
lradius 45.2418
lwrist -0.590791
lhand -14.257 -8.03548
lfingers 7.12502
lthumb 11.8813 21.6074
rfemur -26.3372 -22.8172 10.7557
rtibia 88.9456
rfoot -17.916 -16.9288
rtoes -9.67241
lfemur -22.4981 2.31921 -23.2472
ltibia 54.4119
lfoot -24.1533 0.711439
ltoes -18.3131
